<!-- Svg Vector Icons : http://www.onlinewebfonts.com/icon -->
<svg fill="#f84" preserveAspectRatio="none" xmlns="http://www.w3.org/2000/svg" x="0px" y="0px" viewBox="0 0 1000 1000">
<g transform="translate(0.000000,511.000000) scale(0.100000,-0.120000)"><path d="M962.5,3149.1c-151.4-26.8-396.7-157.1-521.3-272.1c-124.6-116.9-216.6-256.8-291.3-448.4l-49.8-128.4V125c0-2393.6-7.7-2249.9,122.7-2499c126.5-245.3,322-414,611.3-527l128.4-49.8h4024.5c3882.6,0,4028.3,1.9,4129.9,36.4c400.5,136.1,676.5,438.8,757,831.7c24.9,120.8,28.8,429.3,24.9,2261.4l-5.8,2121.5l-49.8,128.4c-113.1,291.3-279.8,482.9-530.8,615.2c-258.7,136.1,26.8,128.4-4325.4,126.5C2624,3168.2,1020,3160.6,962.5,3149.1z M2271.4,1914.9c406.3-82.4,695.7-339.2,820.2-724.4c42.2-126.5,51.7-195.5,53.7-369.9c1.9-231.9-11.5-270.2-130.3-358.4c-74.7-55.6-254.9-55.6-329.6,0c-101.6,74.7-126.5,128.4-143.7,308.5c-26.8,279.8-78.6,394.8-214.6,473.3c-205.1,116.9-588.3,116.9-793.4,0c-95.8-55.6-164.8-166.7-195.5-310.4c-28.7-138-28.7-1517.8,0-1655.8c49.8-237.6,170.6-345,436.9-383.3c289.4-42.1,569.2,30.7,665,176.3c61.3,93.9,82.4,166.7,101.6,369.9c17.2,185.9,44.1,239.6,157.1,316.2c53.7,38.3,82.4,44.1,166.7,38.3c107.3-9.6,174.4-47.9,241.5-138c36.4-46,40.2-78.6,38.3-266.4c-1.9-174.4-11.5-243.4-53.7-369.9c-113.1-348.8-339.2-574.9-691.8-691.8c-141.8-47.9-178.2-51.7-469.5-51.7s-327.7,3.8-471.4,51.7c-191.6,63.3-352.6,166.7-473.3,300.9c-109.2,122.7-164.8,226.1-228.1,421.6c-44.1,141.8-44.1,151.4-44.1,1054s0,912.2,44.1,1054c69,216.5,130.3,322,274.1,465.7c147.6,147.6,323.9,241.5,544.3,287.5C1755.9,1951.3,2087.4,1953.2,2271.4,1914.9z M5446.9,1899.6c283.7-78.6,519.4-249.1,643.9-463.8c128.4-224.2,172.5-609.4,82.4-730.2c-72.8-97.7-136.1-130.3-253-130.3c-84.3,0-124.6,9.6-174.4,46c-76.7,55.6-134.2,174.4-136.1,279.8c-1.9,281.7-159,408.2-527,425.4c-339.2,17.2-559.6-51.7-634.4-199.3c-23-46-47.9-128.4-55.6-187.8c-30.7-258.7,187.8-436.9,651.6-528.9c400.5-78.6,686.1-214.6,900.7-429.3C6156-229.6,6232.6-457.6,6202-787.3c-59.4-640.1-521.3-975.5-1301.2-941c-390.9,17.3-624.8,103.5-835.6,304.7c-145.6,138-224.2,283.6-268.3,494.4c-74.7,360.3,24.9,565.3,276,565.3c193.6,0,283.6-101.6,312.4-350.7c32.6-287.5,153.3-377.5,534.7-400.5c302.8-17.2,544.3,53.7,619,180.1c19.2,34.5,44.1,116.9,53.7,187.8c19.2,113.1,15.3,134.2-21.1,210.8c-74.7,153.3-291.3,270.2-626.7,337.3c-398.6,78.6-684.2,214.6-896.9,429.3c-212.7,212.7-291.3,448.4-258.7,770.4c53.7,515.5,354.5,829.8,885.4,923.7C4829.8,1953.2,5310.8,1936,5446.9,1899.6z M8513.1,1899.6c297-82.4,548.1-270.2,659.3-494.4c118.8-235.7,151.4-586.4,67.1-699.5c-72.8-97.7-136.1-130.3-252.9-130.3c-84.3,0-124.6,9.6-174.4,46c-76.7,55.6-134.2,174.4-136.1,279.8c-1.9,187.8-101.5,337.3-260.6,389c-109.2,36.4-437,49.8-573,24.9c-251-46-354.5-147.6-383.3-375.6c-30.6-258.7,187.8-436.9,651.6-528.9c663.1-130.3,1084.7-463.8,1157.5-912.2c23-149.5-1.9-413.9-53.7-565.3c-157.1-456.1-597.9-689.9-1247.6-661.2c-262.5,11.5-406.3,42.2-590.2,128.4c-161,74.8-350.7,258.7-425.5,410.1c-115,235.7-147.5,584.5-65.2,695.7c132.2,176.3,368,184,498.3,15.3c36.4-47.9,51.8-99.6,65.2-220.4C7484-1003.8,7599-1092,7986.1-1115c325.8-19.2,550,53.7,624.7,199.3c23,46,47.9,128.4,55.6,187.8c30.7,258.7-187.8,435-655.4,528.9C7353.7-68.6,6926.4,268.7,6857.4,713.3c-23,151.4,1.9,408.2,55.6,573c111.2,331.5,413.9,565.3,827.9,638.2C7896.1,1953.2,8377.1,1936,8513.1,1899.6z"/></g>
</svg>