<!-- Svg Vector Icons : http://www.onlinewebfonts.com/icon -->
<svg fill="#08c" xmlns="http://www.w3.org/2000/svg" x="0px" y="0px" viewBox="0 0 1000 1000">
<g><g transform="translate(0.000000,511.000000) scale(0.100000,-0.100000)"><path d="M2330.3,4421.9c-218.4-20.3-508.8-110.3-720.4-218.4c-373.7-195.9-652.9-598.9-803.7-1155c-67.5-252.1-72-747.4-9-1031.1c99.1-457,328.7-990.6,794.7-1848.4c254.4-468.3,490.8-938.8,569.6-1130.2l54-130.6l2154.6-4.5c2147.8-6.7,2156.8-6.7,2219.8-54c85.5-63,128.3-193.6,96.8-292.7c-36-105.8-141.8-189.1-243.1-189.1c-45,0-153.1-15.8-240.9-33.8C5578.9-1796.3,5167-2406.5,5293-3009.8c128.3-610.1,925.3-1103.2,1686.3-1044.6c254.4,20.3,542.6,90.1,679.9,164.3c321.9,175.6,623.6,666.4,740.7,1204.5c51.8,234.1,60.8,657.4,22.5,932.1c-78.8,549.3-310.7,1173-774.5,2080.3c-729.5,1427.4-873.5,1742.5-997.4,2195.1c-56.3,198.1-63.1,265.7-63.1,574.1c-2.2,310.7,4.5,367,51.8,502.1c92.3,274.7,382.7,639.4,610.1,774.5c36,20.3,67.5,47.3,67.5,56.3C7317,4451.2,2566.7,4446.7,2330.3,4421.9z"/><path d="M8199.5,4390.4c-67.5-15.8-207.1-69.8-310.7-121.6c-418.8-207.1-752-691.2-752-1087.4v-108.1h1373.3c1089.7,0,1377.8,6.7,1384.6,29.3c27,63-56.3,403-137.3,571.9c-63.1,135.1-123.8,216.1-265.7,358c-195.8,195.9-364.7,294.9-610.1,358C8719.6,4430.9,8366.1,4430.9,8199.5,4390.4z"/><path d="M610.2-1706.3c-382.7-301.7-578.6-842-488.5-1341.8c99.1-547.1,520.1-999.6,1060.4-1139.2c117.1-31.5,403-36,2161.3-36c1114.4,0,2051,0,2082.5,0c51.8,2.2,47.3,11.3-56.3,99c-276.9,234.2-443.5,475-549.3,797c-182.4,542.6-81,1112.1,281.4,1589.4l81,105.8H2942.6H704.8L610.2-1706.3z"/></g></g>
</svg>